<svg width="142" height="22" viewBox="0 0 142 22" fill="none" xmlns="http://www.w3.org/2000/svg">
<path d="M3.5 18H1V4H3.5V18ZM16.9922 4L19.4922 4.02V18.02L16.9922 16.1L7.99219 9.16V18.02H5.49219V4.06L7.99219 5.98L16.9922 12.92V4ZM32.9883 4L35.4883 4.02V18.02L32.9883 16.1L23.9883 9.16V18.02H21.4883V4.06L23.9883 5.98L32.9883 12.92V4ZM44.0044 4C47.8644 4 51.0044 7.14 51.0044 11C51.0044 14.86 47.8644 18 44.0044 18C40.1444 18 37.0044 14.86 37.0044 11C37.0044 7.14 40.1444 4 44.0044 4ZM44.0044 15.5C46.4844 15.5 48.5044 13.48 48.5044 11C48.5044 8.52 46.4844 6.5 44.0044 6.5C41.5244 6.5 39.5044 8.52 39.5044 11C39.5044 13.48 41.5244 15.5 44.0044 15.5ZM63.1834 4H65.9834L64.7034 6.5L58.8434 18L52.9834 6.5L51.7034 4H54.5034L55.7834 6.5L58.8434 12.5L61.9034 6.5L63.1834 4ZM75.1336 15.5L76.4136 18H73.6136L72.3336 15.5L69.2736 9.5L66.2136 15.5L64.9336 18H62.1336L63.4136 15.5L69.2736 4L75.1336 15.5ZM73.6563 4.02H87.6363V6.52H81.8963V18.02H79.3963V6.52H73.6563V4.02ZM98.9523 11.54L100.952 15.54L102.232 18.04H99.4323L98.1523 15.54L96.8123 12.92L96.7523 12.8C96.3123 12.08 95.5323 11.6 94.6323 11.6H92.1323V18.04H89.6323V4.04H98.4723C99.5123 4.04 100.452 4.46 101.132 5.14C101.812 5.82 102.232 6.76 102.232 7.8C102.232 9.32 101.332 10.64 100.032 11.24C99.6923 11.4 99.3323 11.5 98.9523 11.54ZM92.1323 9.12L98.4723 9.1C98.6523 9.1 98.8323 9.06 98.9923 8.98C99.4523 8.78 99.7523 8.32 99.7523 7.82C99.7523 7.36 99.5123 7.04 99.3723 6.9C99.2123 6.74 98.9123 6.54 98.4723 6.54H92.1323V9.12ZM106.762 18H104.262V4H106.762V18ZM108.254 18.06V18.02H108.294L108.254 18.06ZM122.254 18.02V18.06L122.234 18.02H122.254ZM122.254 4.02H122.294L116.874 11.04L122.274 18.02H119.114L115.294 13.08L111.474 18.02H108.314L113.694 11.04L108.274 4.02H111.434L115.274 9L119.114 4.02H122.254Z" fill="black"/>
<path d="M126.143 13C125.393 11.7712 124.997 10.3588 125 8.919C125 4.545 128.582 1 133 1C137.418 1 141 4.545 141 8.919C141.003 10.3588 140.607 11.7712 139.857 13M136 18L135.87 18.647C135.73 19.354 135.659 19.707 135.5 19.987C135.255 20.4186 134.858 20.7436 134.387 20.899C134.082 21 133.72 21 133 21C132.28 21 131.918 21 131.613 20.9C131.142 20.7444 130.745 20.4189 130.5 19.987C130.341 19.707 130.27 19.354 130.13 18.647L130 18M128.383 16.098C128.291 15.822 128.245 15.683 128.25 15.571C128.256 15.4552 128.295 15.3435 128.363 15.2494C128.43 15.1554 128.524 15.083 128.632 15.041C128.736 15 128.882 15 129.172 15H136.828C137.119 15 137.264 15 137.368 15.04C137.476 15.0821 137.57 15.1546 137.638 15.2489C137.706 15.3431 137.745 15.455 137.75 15.571C137.755 15.683 137.709 15.821 137.617 16.098C137.447 16.609 137.362 16.865 137.231 17.072C136.957 17.5046 136.528 17.8156 136.031 17.941C135.793 18 135.525 18 134.988 18H131.012C130.475 18 130.206 18 129.969 17.94C129.473 17.8149 129.043 17.5042 128.769 17.072C128.638 16.865 128.553 16.609 128.383 16.098Z" stroke="black" stroke-width="1.5" stroke-linecap="round" stroke-linejoin="round"/>
<path d="M133.308 10.9999L131.847 6.4789C131.796 6.3364 131.702 6.21345 131.578 6.12747C131.453 6.04149 131.305 5.99686 131.154 5.9999C131.003 5.99686 130.855 6.04149 130.73 6.12747C130.606 6.21345 130.512 6.3364 130.461 6.4789L129 10.9999M136 5.9999V10.9999M129.538 9.4999H132.769" stroke="black" stroke-width="1.5" stroke-linecap="round" stroke-linejoin="round"/>
</svg>
